<?xml version="1.0" encoding="utf-8"?>
<svg viewBox="67.967 213.357 366.43 72.104" xmlns="http://www.w3.org/2000/svg">
  <g transform="matrix(1, 0, 0, 1, 7.105427357601002e-15, 3.552713678800501e-15)">
    <linearGradient id="SVGID_1_" gradientUnits="userSpaceOnUse" x1="152.672" y1="248.3621" x2="153.7286" y2="265.5318">
      <stop offset="0" style="stop-color:#B65AF0"/>
      <stop offset="1" style="stop-color:#68A3EB"/>
    </linearGradient>
    <path fill="url(#SVGID_1_)" d="M146.432,267.27h-4.778l-11.786-23.678h8.388l6.105,12.583l5.999-12.901h4.035l5.999,12.901&#10;&#9;&#9;l6.105-12.583h8.388l-11.786,23.678h-4.778l-5.946-13.485L146.432,267.27z"/>
    <linearGradient id="SVGID_2_" gradientUnits="userSpaceOnUse" x1="189.2258" y1="246.1126" x2="190.2824" y2="263.2823">
      <stop offset="0" style="stop-color:#B65AF0"/>
      <stop offset="1" style="stop-color:#68A3EB"/>
    </linearGradient>
    <path fill="url(#SVGID_2_)" d="M177.968,243.591h7.645v2.814c2.336-2.973,5.097-3.451,7.326-3.451c2.07,0,4.778,0.372,6.796,2.389&#10;&#9;&#9;c2.23,2.23,2.389,5.043,2.389,6.955v14.971h-7.645v-12.158c0-1.539-0.053-3.504-1.274-4.725c-0.584-0.584-1.54-1.062-2.92-1.062&#10;&#9;&#9;c-1.593,0-2.601,0.637-3.185,1.274c-1.274,1.274-1.487,2.973-1.487,4.512v12.158h-7.645V243.591z"/>
    <polygon fill="#D6ECEC" points="113.514,232.381 113.514,232.383 113.514,232.381 &#9;"/>
    <polygon fill="#D6ECEC" points="113.514,232.381 113.514,232.383 113.514,232.381 &#9;"/>
    <polygon fill="#D6ECEC" points="113.514,232.381 113.514,232.383 113.514,232.381 &#9;"/>
    <polyline fill="none" points="112.252,254.158 112.253,254.158 112.252,254.158 112.252,254.159 &#9;"/>
    <linearGradient id="SVGID_3_" gradientUnits="userSpaceOnUse" x1="73.9747" y1="247.1891" x2="127.2054" y2="247.1891">
      <stop offset="0" style="stop-color:#68A3EB"/>
      <stop offset="1" style="stop-color:#8AE1B0"/>
    </linearGradient>
    <path fill="url(#SVGID_3_)" d="M100.59,220.573c-14.7,0-26.615,11.918-26.615,26.615c0,14.7,11.915,26.618,26.615,26.618&#10;&#9;&#9;c14.7,0,26.615-11.918,26.615-26.618C127.205,232.49,115.29,220.573,100.59,220.573z M100.59,271.078&#10;&#9;&#9;c-13.193,0-23.888-10.696-23.888-23.891c0-13.193,10.696-23.888,23.888-23.888c13.195,0,23.891,10.695,23.891,23.888&#10;&#9;&#9;C124.481,260.383,113.785,271.078,100.59,271.078z"/>
    <linearGradient id="SVGID_4_" gradientUnits="userSpaceOnUse" x1="78.7381" y1="247.1887" x2="122.4428" y2="247.1887">
      <stop offset="0" style="stop-color:#B65AF0"/>
      <stop offset="1" style="stop-color:#68A3EB"/>
    </linearGradient>
    <circle fill="url(#SVGID_4_)" cx="100.59" cy="247.189" r="21.852"/>
    <g>
      <path fill="#FFFFFF" d="M111.845,239.345"/>
      <g>
        <path fill="#FFFFFF" d="M114.885,250.468c-0.241,6.514-1.508,7.46-1.508,7.46c-4.137,8.183-15.983,6.292-15.983,6.292&#10;&#9;&#9;&#9;&#9;c-0.996-0.133-1.916-0.331-2.774-0.584v0.002c-0.166-0.048-0.331-0.099-0.495-0.15c-0.118-0.039-0.236-0.077-0.352-0.118&#10;&#9;&#9;&#9;&#9;c-0.06-0.022-0.121-0.041-0.181-0.065c-11.23-3.969-10.352-16.504-10.352-16.504c-0.002-0.125,0-0.193,0-0.193&#10;&#9;&#9;&#9;&#9;c0.024-0.251,0.051-0.497,0.082-0.738c0.029-0.215,0.058-0.425,0.089-0.632c2.152-14.289,14.839-15.025,15.467-15.052&#10;&#9;&#9;&#9;&#9;c0.017-0.002,0.024-0.002,0.024-0.002c17.913-0.663,15.199,11.684,15.199,11.684h-5.047l-0.06-5.713l-16.929,0.019v22.699&#10;&#9;&#9;&#9;&#9;l17.03,0.039V252.6h-3.317v-3.136h7.076C114.945,249.302,114.885,250.468,114.885,250.468z"/>
        <polygon fill="#FFFFFF" points="99.686,254.972 105.756,257.425 94.62,257.425 94.62,237.643 105.756,237.643 99.686,240.094 &#9;&#9;&#9;&#10;&#9;&#9;&#9;&#9;"/>
        <circle fill="#FFFFFF" cx="101.57" cy="246.8" r="0.965"/>
      </g>
    </g>
    <g>
      <linearGradient id="SVGID_5_" gradientUnits="userSpaceOnUse" x1="258.151" y1="253.803" x2="259.7358" y2="268.0671">
        <stop offset="0" style="stop-color:#68A3EB"/>
        <stop offset="1" style="stop-color:#8AE1B0"/>
      </linearGradient>
      <path fill="url(#SVGID_5_)" d="M263.569,243.591h7.645v23.678h-7.645v-2.867c-2.071,3.186-5.044,3.663-7.008,3.663&#10;&#9;&#9;&#9;c-3.398,0-6.265-0.85-8.866-3.61c-2.495-2.655-3.451-5.734-3.451-8.866c0-3.982,1.487-7.38,3.663-9.556&#10;&#9;&#9;&#9;c2.071-2.07,4.937-3.238,8.229-3.238c2.017,0,5.256,0.478,7.433,3.451V243.591z M253.853,251.077&#10;&#9;&#9;&#9;c-0.796,0.797-1.752,2.177-1.752,4.3c0,2.124,0.902,3.504,1.593,4.247c1.062,1.115,2.708,1.858,4.513,1.858&#10;&#9;&#9;&#9;c1.54,0,2.973-0.637,3.982-1.646c1.009-0.956,1.858-2.442,1.858-4.46c0-1.699-0.637-3.291-1.752-4.353&#10;&#9;&#9;&#9;c-1.168-1.115-2.867-1.646-4.247-1.646C256.401,249.378,254.862,250.068,253.853,251.077z"/>
      <linearGradient id="SVGID_6_" gradientUnits="userSpaceOnUse" x1="282.719" y1="251.0732" x2="284.3038" y2="265.3373">
        <stop offset="0" style="stop-color:#68A3EB"/>
        <stop offset="1" style="stop-color:#8AE1B0"/>
      </linearGradient>
      <path fill="url(#SVGID_6_)" d="M285.017,249.75v17.52h-7.645v-17.52h-2.655v-6.159h2.655v-7.645h7.645v7.645h4.725v6.159H285.017z&#10;&#9;&#9;&#9;"/>
      <linearGradient id="SVGID_7_" gradientUnits="userSpaceOnUse" x1="303.8196" y1="248.7287" x2="305.4045" y2="262.9928">
        <stop offset="0" style="stop-color:#68A3EB"/>
        <stop offset="1" style="stop-color:#8AE1B0"/>
      </linearGradient>
      <path fill="url(#SVGID_7_)" d="M317.296,256.758h-17.679c0,1.274,0.478,2.973,1.433,4.035c1.168,1.274,2.761,1.487,3.929,1.487&#10;&#9;&#9;&#9;c1.115,0,2.283-0.213,3.079-0.69c0.106-0.053,1.009-0.637,1.646-1.964l7.22,0.743c-1.062,3.345-3.185,5.096-4.566,5.946&#10;&#9;&#9;&#9;c-2.283,1.38-4.831,1.752-7.486,1.752c-3.557,0-6.689-0.637-9.45-3.398c-2.071-2.071-3.557-5.203-3.557-9.132&#10;&#9;&#9;&#9;c0-3.397,1.221-6.902,3.61-9.344c2.867-2.867,6.424-3.398,9.078-3.398c2.655,0,6.477,0.478,9.397,3.557&#10;&#9;&#9;&#9;c2.814,2.973,3.345,6.689,3.345,9.609V256.758z M310.235,252.192c-0.053-0.212-0.425-1.699-1.54-2.761&#10;&#9;&#9;&#9;c-0.85-0.796-2.071-1.327-3.61-1.327c-1.964,0-3.132,0.796-3.875,1.54c-0.584,0.637-1.115,1.487-1.327,2.548H310.235z"/>
      <linearGradient id="SVGID_8_" gradientUnits="userSpaceOnUse" x1="341.8193" y1="244.5065" x2="343.4042" y2="258.7706">
        <stop offset="0" style="stop-color:#68A3EB"/>
        <stop offset="1" style="stop-color:#8AE1B0"/>
      </linearGradient>
      <path fill="url(#SVGID_8_)" d="M335.771,267.27h-4.778l-11.786-23.678h8.388l6.106,12.583l5.999-12.901h4.035l5.999,12.901&#10;&#9;&#9;&#9;l6.105-12.583h8.388l-11.786,23.678h-4.778l-5.946-13.485L335.771,267.27z"/>
      <linearGradient id="SVGID_9_" gradientUnits="userSpaceOnUse" x1="377.7736" y1="240.5116" x2="379.3585" y2="254.7757">
        <stop offset="0" style="stop-color:#68A3EB"/>
        <stop offset="1" style="stop-color:#8AE1B0"/>
      </linearGradient>
      <path fill="url(#SVGID_9_)" d="M384.668,243.591h7.645v23.678h-7.645v-2.867c-2.071,3.186-5.044,3.663-7.008,3.663&#10;&#9;&#9;&#9;c-3.398,0-6.265-0.85-8.866-3.61c-2.495-2.655-3.451-5.734-3.451-8.866c0-3.982,1.487-7.38,3.663-9.556&#10;&#9;&#9;&#9;c2.071-2.07,4.937-3.238,8.229-3.238c2.017,0,5.256,0.478,7.433,3.451V243.591z M374.952,251.077&#10;&#9;&#9;&#9;c-0.796,0.797-1.752,2.177-1.752,4.3c0,2.124,0.902,3.504,1.593,4.247c1.062,1.115,2.708,1.858,4.513,1.858&#10;&#9;&#9;&#9;c1.54,0,2.973-0.637,3.982-1.646c1.009-0.956,1.858-2.442,1.858-4.46c0-1.699-0.637-3.291-1.752-4.353&#10;&#9;&#9;&#9;c-1.168-1.115-2.867-1.646-4.247-1.646C377.501,249.378,375.961,250.068,374.952,251.077z"/>
      <linearGradient id="SVGID_10_" gradientUnits="userSpaceOnUse" x1="409.4708" y1="236.9897" x2="411.0557" y2="251.2538">
        <stop offset="0" style="stop-color:#68A3EB"/>
        <stop offset="1" style="stop-color:#8AE1B0"/>
      </linearGradient>
      <path fill="url(#SVGID_10_)" d="M406.7,264.243l-11.308-20.652h8.813l6.689,12.848l6.53-12.848h8.601l-19.059,35.836h-8.601&#10;&#9;&#9;&#9;L406.7,264.243z"/>
      <linearGradient id="SVGID_11_" gradientUnits="userSpaceOnUse" x1="238.6155" y1="240.0345" x2="238.6155" y2="240.0345">
        <stop offset="0" style="stop-color:#68A3EB"/>
        <stop offset="1" style="stop-color:#8AE1B0"/>
      </linearGradient>
      <path fill="url(#SVGID_11_)" d="M238.616,240.035"/>
      <g>
        <linearGradient id="SVGID_12_" gradientUnits="userSpaceOnUse" x1="238.4892" y1="240.6833" x2="238.4892" y2="240.6833">
          <stop offset="0" style="stop-color:#68A3EB"/>
          <stop offset="1" style="stop-color:#8AE1B0"/>
        </linearGradient>
        <path fill="url(#SVGID_12_)" d="M238.489,240.683"/>
        <g>
          <linearGradient id="SVGID_13_" gradientUnits="userSpaceOnUse" x1="225.4606" y1="257.4352" x2="227.0455" y2="271.6993">
            <stop offset="0" style="stop-color:#68A3EB"/>
            <stop offset="1" style="stop-color:#8AE1B0"/>
          </linearGradient>
          <path fill="url(#SVGID_13_)" d="M241.811,252.835c-0.264,7.117-1.647,8.15-1.647,8.15c-4.52,8.941-17.462,6.874-17.462,6.874&#10;&#9;&#9;&#9;&#9;&#9;c-1.089-0.145-2.093-0.361-3.031-0.638v0.003c-0.182-0.053-0.361-0.108-0.54-0.163c-0.129-0.042-0.258-0.084-0.385-0.129&#10;&#9;&#9;&#9;&#9;&#9;c-0.066-0.024-0.132-0.045-0.198-0.071c-12.27-4.336-11.31-18.032-11.31-18.032c-0.003-0.137,0-0.211,0-0.211&#10;&#9;&#9;&#9;&#9;&#9;c0.026-0.274,0.055-0.543,0.09-0.807c0.032-0.235,0.063-0.464,0.098-0.691c2.351-15.612,16.213-16.416,16.898-16.445&#10;&#9;&#9;&#9;&#9;&#9;c0.018-0.003,0.026-0.003,0.026-0.003c19.571-0.725,16.606,12.765,16.606,12.765h-5.514l-0.066-6.242l-18.495,0.021v24.8&#10;&#9;&#9;&#9;&#9;&#9;l18.606,0.042v-6.895h-3.624v-3.427h7.731C241.877,251.562,241.811,252.835,241.811,252.835z"/>
          <linearGradient id="SVGID_14_" gradientUnits="userSpaceOnUse" x1="226.6069" y1="257.3079" x2="228.1918" y2="271.572">
            <stop offset="0" style="stop-color:#68A3EB"/>
            <stop offset="1" style="stop-color:#8AE1B0"/>
          </linearGradient>
          <polygon fill="url(#SVGID_14_)" points="225.206,257.756 231.837,260.437 219.67,260.437 219.67,238.824 231.837,238.824 &#10;&#9;&#9;&#9;&#9;&#9;225.206,241.501 &#9;&#9;&#9;&#9;"/>
          <linearGradient id="SVGID_15_" gradientUnits="userSpaceOnUse" x1="228.1864" y1="257.1324" x2="229.7713" y2="271.3965">
            <stop offset="0" style="stop-color:#68A3EB"/>
            <stop offset="1" style="stop-color:#8AE1B0"/>
          </linearGradient>
          <circle fill="url(#SVGID_15_)" cx="227.264" cy="248.828" r="1.054"/>
        </g>
      </g>
    </g>
  </g>
</svg>